<?xml version="1.0" standalone="no"?>
<!DOCTYPE svg PUBLIC "-//W3C//DTD SVG 20010904//EN"
 "http://www.w3.org/TR/2001/REC-SVG-20010904/DTD/svg10.dtd">
<svg version="1.0" xmlns="http://www.w3.org/2000/svg"
 width="512.000000pt" height="512.000000pt" viewBox="0 0 512.000000 512.000000"
 preserveAspectRatio="xMidYMid meet">

<g transform="translate(0.000000,512.000000) scale(0.100000,-0.100000)"
fill="#000000" stroke="none">
<path d="M995 3144 c-170 -26 -322 -122 -414 -260 -71 -105 -96 -190 -96 -324
0 -134 25 -219 96 -324 108 -162 285 -258 479 -260 165 -1 300 53 414 167 150
149 208 353 161 556 -48 203 -226 382 -426 430 -55 13 -172 21 -214 15z m195
-352 c99 -50 147 -140 137 -259 -9 -112 -80 -196 -194 -229 -117 -34 -245 24
-306 140 -30 58 -30 174 0 232 74 139 223 187 363 116z"/>
<path d="M2470 3140 c-214 -34 -404 -199 -472 -410 -29 -91 -29 -249 0 -340
59 -184 212 -335 397 -392 95 -29 243 -29 335 1 182 58 333 209 392 391 29 91
29 249 -1 340 -60 187 -218 342 -402 394 -70 20 -180 27 -249 16z m149 -321
c179 -38 267 -262 160 -408 -112 -156 -326 -156 -438 0 -104 142 -25 359 147
405 60 16 70 16 131 3z"/>
<path d="M3966 3140 c-134 -24 -232 -75 -327 -170 -229 -227 -226 -594 5 -825
117 -116 253 -170 421 -168 331 4 594 288 572 618 -13 188 -104 348 -256 449
-119 79 -289 119 -415 96z m199 -339 c49 -22 99 -70 128 -125 30 -58 31 -174
0 -232 -82 -154 -267 -196 -404 -91 -98 74 -129 218 -71 327 66 128 215 179
347 121z"/>
</g>
</svg>
