<?xml version="1.0" standalone="no"?>
<!DOCTYPE svg PUBLIC "-//W3C//DTD SVG 20010904//EN"
 "http://www.w3.org/TR/2001/REC-SVG-20010904/DTD/svg10.dtd">
<svg version="1.0" xmlns="http://www.w3.org/2000/svg"
 width="512.000000pt" height="512.000000pt" viewBox="0 0 512.000000 512.000000"
 preserveAspectRatio="xMidYMid meet">

<g transform="translate(0.000000,512.000000) scale(0.100000,-0.100000)"
fill="#000000" stroke="none">
<path d="M825 5031 c-74 -19 -131 -67 -164 -141 -19 -41 -21 -65 -21 -291 0
-239 1 -247 23 -279 43 -64 68 -74 183 -80 l105 -5 -273 -190 c-315 -219 -386
-283 -447 -405 -69 -138 -72 -168 -69 -651 l3 -425 1480 388 c814 213 1565
410 1669 437 103 28 190 52 193 54 9 10 -22 107 -58 184 -26 55 -60 104 -101
148 -66 71 -75 78 -401 307 l-218 153 105 5 c115 6 140 16 184 80 21 32 22 40
22 279 0 226 -2 250 -21 291 -25 55 -62 95 -114 123 l-40 22 -1005 2 c-553 0
-1018 -2 -1035 -6z"/>
<path d="M3951 4934 c-39 -33 -41 -74 -6 -109 20 -21 34 -25 80 -25 l55 0 0
-119 0 -118 -37 -6 c-21 -3 -105 -13 -188 -23 -170 -19 -202 -32 -235 -100
-17 -34 -20 -61 -20 -173 0 -127 1 -133 25 -156 l24 -25 671 0 671 0 24 25
c24 23 25 30 25 148 0 135 -9 178 -48 219 -34 37 -60 44 -237 63 -82 9 -160
18 -172 21 -22 4 -23 8 -23 124 l0 120 55 0 c46 0 60 4 80 25 35 35 33 76 -6
109 l-31 26 -338 0 -338 0 -31 -26z"/>
<path d="M3470 3264 c-25 -8 -150 -41 -278 -74 -399 -103 -3027 -792 -3030
-794 -1 -2 -1 -342 0 -758 l3 -754 1675 438 c921 242 1676 440 1677 442 2 1 2
343 1 758 l-3 755 -45 -13z m-489 -476 c29 -81 56 -148 59 -148 3 0 41 97 84
215 44 118 80 215 81 215 5 0 139 -51 146 -56 4 -2 -4 -32 -17 -67 -14 -34
-67 -176 -119 -315 l-95 -253 0 -270 0 -269 -80 0 -80 0 0 272 0 272 -115 306
c-63 169 -115 311 -115 316 0 5 33 21 73 35 l72 26 26 -66 c14 -36 50 -132 80
-213z m-341 12 l0 -80 -160 0 -160 0 0 -160 0 -160 120 0 120 0 0 -80 0 -80
-120 0 -120 0 0 -200 0 -200 160 0 160 0 0 -80 0 -80 -215 0 c-216 0 -216 0
-240 25 l-25 24 0 551 0 551 25 24 c24 25 24 25 240 25 l215 0 0 -80z m-720
-680 l0 -600 -80 0 -80 0 0 200 0 200 -120 0 -120 0 0 -280 0 -280 -80 0 -80
0 0 600 0 600 80 0 80 0 0 -240 0 -240 120 0 120 0 0 320 0 320 80 0 80 0 0
-600z m-800 -215 l0 -576 -25 -24 c-29 -30 -74 -33 -104 -7 -12 10 -48 90 -90
202 -38 102 -75 199 -81 215 -11 28 -18 11 -101 -265 -66 -219 -94 -299 -110
-312 -31 -26 -75 -23 -104 7 l-25 24 0 576 0 575 80 0 80 0 2 -282 3 -282 40
139 c43 151 63 185 112 185 50 0 68 -24 114 -147 l44 -118 3 333 2 332 80 0
80 0 0 -575z"/>
<path d="M4237 2543 c-8 -10 -48 -100 -88 -200 -66 -166 -71 -184 -60 -211 17
-40 48 -52 136 -52 41 0 75 -4 75 -9 0 -5 -9 -53 -20 -106 -27 -132 -26 -159
6 -184 34 -27 67 -27 99 2 22 19 30 45 61 200 47 237 39 257 -101 257 -36 0
-65 2 -65 5 0 3 20 56 45 117 25 62 45 120 45 129 0 9 -9 28 -21 43 -25 32
-86 37 -112 9z"/>
<path d="M2285 1273 c-676 -177 -1432 -375 -1679 -439 l-448 -118 4 -135 c4
-110 9 -147 27 -191 25 -63 89 -152 142 -198 48 -42 141 -87 209 -101 41 -9
383 -11 1335 -9 l1280 3 54 23 c156 66 268 198 301 352 8 39 10 215 8 595 l-3
541 -1230 -323z"/>
</g>
</svg>
