<?xml version="1.0" standalone="no"?>
<!DOCTYPE svg PUBLIC "-//W3C//DTD SVG 20010904//EN"
 "http://www.w3.org/TR/2001/REC-SVG-20010904/DTD/svg10.dtd">
<svg version="1.0" xmlns="http://www.w3.org/2000/svg"
 width="512.000000pt" height="512.000000pt" viewBox="0 0 512.000000 512.000000"
 preserveAspectRatio="xMidYMid meet">

<g transform="translate(0.000000,512.000000) scale(0.100000,-0.100000)"
fill="#000000" stroke="none">
<path d="M3000 4267 c0 -139 -2 -157 -22 -197 -30 -58 -74 -87 -146 -95 -180
-18 -277 -60 -377 -160 -89 -89 -141 -195 -155 -315 -6 -51 -10 -660 -10
-1537 l0 -1453 38 -19 c46 -24 99 -81 119 -130 25 -59 20 -153 -11 -214 l-27
-52 23 -19 c13 -10 48 -31 78 -45 l55 -26 1140 0 1140 0 65 31 c82 40 134 92
174 174 l31 65 3 1595 c2 1132 -1 1614 -8 1662 -31 183 -173 351 -345 408 -33
11 -100 24 -148 29 -67 7 -97 14 -120 32 -73 53 -85 91 -86 265 l-1 141 -527
6 c-289 4 -607 7 -705 7 l-178 0 0 -153z m1142 -1414 c33 -32 110 -111 171
-177 l110 -118 -6 -53 c-7 -69 -29 -109 -79 -145 -33 -24 -51 -30 -94 -30 -29
0 -65 5 -79 10 -15 6 -68 53 -117 104 -49 52 -102 99 -117 106 -19 7 -97 10
-240 8 l-212 -3 -60 -62 -59 -61 0 -401 0 -402 47 -50 c74 -79 74 -79 303 -79
126 0 210 4 223 11 12 6 69 60 127 120 l105 109 50 0 c107 -1 185 -67 193
-164 3 -37 -1 -64 -13 -90 -10 -20 -83 -104 -164 -187 l-146 -149 -379 0 -379
0 -151 156 c-83 86 -156 166 -163 177 -9 17 -12 154 -13 547 0 503 1 526 19
555 11 17 84 96 163 178 l143 147 378 0 378 0 61 -57z"/>
<path d="M980 1935 c-8 -2 -32 -6 -52 -10 l-38 -6 0 -602 c0 -422 -3 -606 -11
-614 -6 -6 44 3 110 20 106 27 127 30 169 20 26 -5 54 -13 62 -17 13 -5 15 63
12 593 l-2 599 -23 6 c-27 8 -206 17 -227 11z"/>
<path d="M440 584 c-288 -79 -293 -81 -343 -124 -61 -54 -88 -111 -88 -191 -1
-107 52 -192 146 -235 78 -37 131 -32 380 33 121 31 222 58 224 59 3 3 -79
322 -115 452 -9 28 -21 52 -27 51 -7 0 -86 -21 -177 -45z"/>
<path d="M1380 497 c0 -136 -96 -239 -258 -277 -47 -11 -52 -14 -46 -34 13
-43 34 -73 74 -110 75 -68 86 -70 368 -74 l252 -4 0 266 0 266 -195 0 -195 0
0 -33z"/>
</g>
</svg>
