<?xml version="1.0" standalone="no"?>
<!DOCTYPE svg PUBLIC "-//W3C//DTD SVG 20010904//EN"
 "http://www.w3.org/TR/2001/REC-SVG-20010904/DTD/svg10.dtd">
<svg version="1.0" xmlns="http://www.w3.org/2000/svg"
 width="512.000000pt" height="512.000000pt" viewBox="0 0 512.000000 512.000000"
 preserveAspectRatio="xMidYMid meet">

<g transform="translate(0.000000,512.000000) scale(0.100000,-0.100000)"
fill="#000000" stroke="none">
<path d="M885 4120 c-304 -5 -310 -6 -367 -67 -46 -48 -58 -92 -58 -206 l0
-105 -117 -4 c-131 -5 -181 -21 -246 -77 -88 -78 -119 -229 -67 -335 46 -97
121 -150 233 -167 37 -6 371 -8 817 -7 l755 3 57 28 c134 66 197 211 152 353
-14 46 -31 72 -74 116 -71 71 -122 88 -262 88 l-98 0 0 88 c0 116 -20 182 -70
232 -55 55 -115 71 -259 68 -64 -1 -242 -5 -396 -8z"/>
<path d="M3592 3444 c-16 -11 -22 -25 -22 -53 0 -42 19 -65 63 -76 l27 -7 0
-133 0 -132 -30 -6 c-41 -9 -65 -48 -54 -90 14 -46 44 -57 160 -57 87 0 105 3
128 21 48 38 24 129 -34 129 -19 0 -20 7 -20 160 0 176 -8 213 -53 243 -34 22
-134 23 -165 1z"/>
<path d="M2430 2555 c0 -360 3 -655 6 -655 3 0 99 56 212 124 287 172 251 158
413 157 76 -1 146 -4 156 -8 44 -16 74 -48 106 -116 84 -177 217 -289 388
-327 79 -18 229 -9 304 18 136 50 244 149 310 287 24 50 55 101 70 115 24 23
34 25 120 25 88 0 96 -2 136 -30 23 -16 53 -50 66 -74 23 -44 23 -45 23 -443
l0 -398 88 0 c129 1 211 45 265 145 l22 40 3 897 2 898 -52 -24 c-29 -13 -329
-157 -667 -320 -338 -163 -620 -296 -627 -296 -10 0 -1167 550 -1305 621 l-39
19 0 -655z"/>
<path d="M220 1651 c-132 -41 -213 -148 -214 -281 -1 -108 61 -210 159 -263
39 -22 48 -22 585 -25 l545 -3 29 61 c16 34 52 84 81 113 47 48 90 76 484 312
28 17 51 33 51 37 0 4 -19 18 -42 30 l-43 23 -805 2 c-443 1 -816 -2 -830 -6z"/>
<path d="M462 952 c3 -109 5 -122 30 -160 15 -22 49 -54 75 -69 l48 -28 362
-3 362 -3 -24 54 c-44 94 -54 204 -29 304 l6 23 -417 0 -417 0 4 -118z"/>
</g>
</svg>
