<?xml version="1.0" standalone="no"?>
<!DOCTYPE svg PUBLIC "-//W3C//DTD SVG 20010904//EN"
 "http://www.w3.org/TR/2001/REC-SVG-20010904/DTD/svg10.dtd">
<svg version="1.0" xmlns="http://www.w3.org/2000/svg"
 width="512.000000pt" height="512.000000pt" viewBox="0 0 512.000000 512.000000"
 preserveAspectRatio="xMidYMid meet">

<g transform="translate(0.000000,512.000000) scale(0.100000,-0.100000)"
fill="#000000" stroke="none">
<path d="M841 4704 c-85 -23 -167 -72 -227 -136 -101 -110 -134 -208 -134
-404 0 -67 4 -146 10 -175 17 -90 72 -190 141 -253 33 -31 64 -54 68 -51 5 2
47 55 95 118 l86 113 0 162 0 162 280 0 280 0 0 28 c0 15 -7 54 -15 85 -67
259 -333 419 -584 351z"/>
<path d="M4115 2230 c-118 -22 -246 -82 -341 -162 -133 -111 -218 -268 -246
-455 l-11 -77 -276 -368 -276 -368 -802 0 -803 0 0 -200 0 -200 1800 0 1800 0
0 200 0 200 -327 1 c-225 1 -311 4 -275 10 147 25 281 95 392 208 87 88 140
173 177 286 23 71 26 96 26 215 1 118 -3 145 -25 212 -39 119 -92 204 -182
294 -138 138 -287 203 -476 209 -58 2 -127 0 -155 -5z m216 -428 c174 -83 265
-281 214 -467 -25 -94 -62 -140 -143 -178 -61 -29 -76 -32 -163 -32 -90 0 -99
2 -171 37 -91 45 -147 103 -191 196 -29 61 -32 76 -32 162 0 86 3 101 31 161
20 42 45 76 68 94 95 73 266 85 387 27z m-578 -809 c60 -55 137 -105 213 -136
51 -21 81 -29 189 -51 11 -2 -163 -4 -388 -5 l-407 -1 131 175 131 174 42 -57
c24 -31 64 -76 89 -99z"/>
<path d="M1905 2153 c-11 -3 -157 -56 -324 -119 l-304 -114 -544 0 c-621 0
-562 11 -514 -101 37 -88 94 -172 164 -241 l57 -58 -140 0 -140 0 0 -240 0
-240 600 0 600 0 0 196 c0 178 2 196 18 201 9 2 152 58 317 122 l300 118 47
-97 c70 -145 139 -224 346 -398 99 -84 184 -156 187 -162 3 -5 10 -10 14 -10
5 0 54 61 110 135 l102 136 -276 378 c-151 209 -294 395 -316 416 -58 52 -120
76 -209 80 -41 2 -84 1 -95 -2z"/>
</g>
</svg>
